<svg width="93" height="93" viewBox="0 0 93 93" fill="none" xmlns="http://www.w3.org/2000/svg">
<g filter="url(#filter0_b_1_207)">
<rect y="4" width="89" height="89" rx="44.5" fill="#313036" fill-opacity="0.3"/>
<rect y="4" width="89" height="89" rx="44.5" fill="url(#paint0_linear_1_207)"/>
<rect x="1" y="5" width="87" height="87" rx="43.5" stroke="url(#paint1_linear_1_207)" stroke-width="2"/>
</g>
<g filter="url(#filter1_b_1_207)">
<ellipse cx="45.0499" cy="47.596" rx="24.1246" ry="24.1334" fill="url(#paint2_linear_1_207)"/>
<path d="M69.0426 47.596C69.0426 60.8517 58.3007 71.5974 45.0499 71.5974C31.7992 71.5974 21.0573 60.8517 21.0573 47.596C21.0573 34.3404 31.7992 23.5946 45.0499 23.5946C58.3007 23.5946 69.0426 34.3404 69.0426 47.596Z" stroke="url(#paint3_linear_1_207)" stroke-opacity="0.5" stroke-width="0.263998"/>
</g>
<g filter="url(#filter2_d_1_207)">
<path d="M44.133 22C29.7246 22 18 33.7288 18 48.1425C18 62.5561 29.7246 74.291 44.133 74.291C58.5414 74.291 70.266 62.5622 70.266 48.1485C70.266 33.7349 58.5414 22 44.133 22ZM55.3932 43.1589L42.3237 57.2347C41.7326 57.8743 40.9244 58.2001 40.1102 58.2001C39.4106 58.2001 38.717 57.9587 38.1441 57.4761L31.1057 51.4427C29.8392 50.3567 29.6944 48.4562 30.78 47.1892C31.8656 45.9222 33.7654 45.7714 35.032 46.8634L39.869 51.0083L50.9663 39.0563C52.1002 37.8375 54.006 37.7651 55.2303 38.8994C56.4546 40.0337 56.521 41.9402 55.3932 43.1589Z" fill="url(#paint4_linear_1_207)"/>
</g>
<defs>
<filter id="filter0_b_1_207" x="-4" y="0" width="97" height="97" filterUnits="userSpaceOnUse" color-interpolation-filters="sRGB">
<feFlood flood-opacity="0" result="BackgroundImageFix"/>
<feGaussianBlur in="BackgroundImage" stdDeviation="2"/>
<feComposite in2="SourceAlpha" operator="in" result="effect1_backgroundBlur_1_207"/>
<feBlend mode="normal" in="SourceGraphic" in2="effect1_backgroundBlur_1_207" result="shape"/>
</filter>
<filter id="filter1_b_1_207" x="1.12545" y="3.6628" width="87.849" height="87.8664" filterUnits="userSpaceOnUse" color-interpolation-filters="sRGB">
<feFlood flood-opacity="0" result="BackgroundImageFix"/>
<feGaussianBlur in="BackgroundImage" stdDeviation="9.89992"/>
<feComposite in2="SourceAlpha" operator="in" result="effect1_backgroundBlur_1_207"/>
<feBlend mode="normal" in="SourceGraphic" in2="effect1_backgroundBlur_1_207" result="shape"/>
</filter>
<filter id="filter2_d_1_207" x="8" y="0" width="84.266" height="84.291" filterUnits="userSpaceOnUse" color-interpolation-filters="sRGB">
<feFlood flood-opacity="0" result="BackgroundImageFix"/>
<feColorMatrix in="SourceAlpha" type="matrix" values="0 0 0 0 0 0 0 0 0 0 0 0 0 0 0 0 0 0 127 0" result="hardAlpha"/>
<feOffset dx="6" dy="-6"/>
<feGaussianBlur stdDeviation="8"/>
<feColorMatrix type="matrix" values="0 0 0 0 0.698039 0 0 0 0 0.968627 0 0 0 0 0.388235 0 0 0 0.2 0"/>
<feBlend mode="normal" in2="BackgroundImageFix" result="effect1_dropShadow_1_207"/>
<feBlend mode="normal" in="SourceGraphic" in2="effect1_dropShadow_1_207" result="shape"/>
</filter>
<linearGradient id="paint0_linear_1_207" x1="4.38115" y1="8.93986" x2="44.5" y2="50.28" gradientUnits="userSpaceOnUse">
<stop stop-color="#B1B1B1" stop-opacity="0.32"/>
<stop offset="1" stop-color="#363567" stop-opacity="0.2"/>
</linearGradient>
<linearGradient id="paint1_linear_1_207" x1="-18.7493" y1="-2.41195" x2="5.36297" y2="111.152" gradientUnits="userSpaceOnUse">
<stop stop-color="white" stop-opacity="0.2"/>
<stop offset="1" stop-color="white" stop-opacity="0"/>
</linearGradient>
<linearGradient id="paint2_linear_1_207" x1="65.7537" y1="32.1787" x2="5.62722" y2="23.8678" gradientUnits="userSpaceOnUse">
<stop stop-color="white"/>
<stop offset="1" stop-color="white" stop-opacity="0.61"/>
</linearGradient>
<linearGradient id="paint3_linear_1_207" x1="26.1228" y1="39.6538" x2="67.0931" y2="39.8799" gradientUnits="userSpaceOnUse">
<stop stop-color="white"/>
<stop offset="1" stop-color="white" stop-opacity="0"/>
</linearGradient>
<linearGradient id="paint4_linear_1_207" x1="70.266" y1="22" x2="33.3933" y2="65.1038" gradientUnits="userSpaceOnUse">
<stop stop-color="#B2F763"/>
<stop offset="1" stop-color="#26AB3F"/>
</linearGradient>
</defs>
</svg>
