<svg width="116" height="106" viewBox="0 0 116 106" fill="none" xmlns="http://www.w3.org/2000/svg">
<path fill-rule="evenodd" clip-rule="evenodd" d="M17.2256 8.24878C-7.7762 10.1399 -29.6988 23.0947 -43.6874 42.2444L-40.2153 44.2743C-26.9439 26.2994 -6.30158 14.132 17.2256 12.261V8.24878ZM88.2697 45.5052C75.5932 27.634 55.7401 15.2427 32.9327 12.5563V8.52957C57.2145 11.2487 78.3443 24.4316 91.7356 43.4788L88.2697 45.5052ZM96.0751 123.956C100.471 114.067 102.916 103.112 102.916 91.5825C102.916 80.084 100.484 69.1563 96.1101 59.2876L99.5844 57.2563C104.294 67.7284 106.916 79.3485 106.916 91.5825C106.916 103.847 104.281 115.495 99.549 125.987L96.0751 123.956ZM32.9327 170.609C55.7103 167.926 75.5413 155.564 88.2199 137.73L91.6861 139.757C78.2923 158.766 57.1847 171.92 32.9327 174.636V170.609ZM-40.1641 138.96C-26.8908 156.897 -6.27134 169.035 17.2256 170.904V174.916C-7.74594 173.027 -29.6457 160.102 -43.6365 140.99L-40.1641 138.96ZM-48.3172 57.9039C-53.0871 68.1309 -55.752 79.5438 -55.752 91.5825C-55.752 103.652 -53.0735 115.092 -48.2808 125.339L-51.7482 127.366C-56.8805 116.519 -59.752 104.387 -59.752 91.5825C-59.752 78.8085 -56.8942 66.7038 -51.785 55.8764L-48.3172 57.9039Z" fill="url(#paint0_radial_879_24)" fill-opacity="0.23"/>
<path fill-rule="evenodd" clip-rule="evenodd" d="M52.6754 30.9647C34.4955 22.2252 14.0106 22.4326 -3.43861 30.1474L-1.44656 33.6417C14.7939 26.5854 33.7765 26.4198 50.6692 34.4395L52.6754 30.9647ZM86.402 85.5037C84.7649 68.2225 76.056 51.8622 61.4924 40.9661L63.506 37.4786C79.3298 49.1405 88.7485 66.8246 90.4169 85.4818L86.402 85.5037ZM60.6788 142.615C67.6039 137.563 73.6135 131.012 78.1792 123.104C82.7328 115.217 85.3991 106.761 86.3187 98.2601L90.3434 98.2381C89.4126 107.429 86.5646 116.58 81.6433 125.104C76.7099 133.649 70.1894 140.704 62.6719 146.111L60.6788 142.615ZM-1.29755 149.722C15.3987 156.877 33.8952 156.25 49.6663 149.053L51.655 152.542C34.6763 160.398 14.6786 161.073 -3.31109 153.209L-1.29755 149.722ZM-39.1025 98.9444C-37.077 116.512 -27.7334 133.006 -12.3614 143.612L-14.3676 147.086C-31.0064 135.725 -41.0651 117.91 -43.125 98.9664L-39.1025 98.9444ZM-12.5745 39.8777C-19.8959 45.0159 -26.2435 51.7975 -31.0144 60.0609C-35.7973 68.3452 -38.4981 77.2572 -39.2796 86.1894L-43.2963 86.2113C-42.5087 76.5896 -39.6291 66.982 -34.4785 58.0609C-29.3399 49.1606 -22.4795 41.8764 -14.5641 36.3878L-12.5745 39.8777Z" fill="url(#paint1_radial_879_24)" fill-opacity="0.23"/>
<path fill-rule="evenodd" clip-rule="evenodd" d="M64.5491 62.7878C55.9058 50.1292 42.3462 42.4826 27.932 40.9299L27.91 44.9525C40.9481 46.4706 53.1859 53.4021 61.074 64.7942L64.5491 62.7878ZM65.1844 111.015C70.5145 99.311 70.988 85.5962 65.7135 73.2033L69.2015 71.1895C75.184 84.876 74.6633 100.092 68.6727 113.004L65.1844 111.015ZM27.4005 138.336C33.7116 137.646 39.9886 135.662 45.8448 132.281C51.6851 128.909 56.5313 124.48 60.2807 119.377L63.7777 121.37C59.6731 127.065 54.3221 132.005 47.8448 135.745C41.3516 139.494 34.3799 141.659 27.3785 142.361L27.4005 138.336ZM-15.2519 119.949C-7.16753 130.699 4.92502 137.143 17.7071 138.391L17.6852 142.407C3.52695 141.127 -9.88907 133.972 -18.74 121.963L-15.2519 119.949ZM-20.8366 73.132C-26.0207 85.1718 -26.1287 99.2154 -20.2148 111.726L-23.6898 113.733C-30.323 99.9343 -30.1736 84.3886 -24.3316 71.1395L-20.8366 73.132ZM18.2177 44.827C11.6131 45.4249 5.02631 47.4329 -1.09992 50.9699C-7.24203 54.5161 -12.2846 59.2316 -16.1083 64.6702L-19.5981 62.6806C-15.4241 56.648 -9.87888 51.4197 -3.09992 47.5058C3.66316 43.6012 10.9454 41.4141 18.2396 40.8096L18.2177 44.827Z" fill="url(#paint2_radial_879_24)" fill-opacity="0.23"/>
<defs>
<radialGradient id="paint0_radial_879_24" cx="0" cy="0" r="1" gradientUnits="userSpaceOnUse" gradientTransform="translate(22.9552 92.2091) rotate(24.3474) scale(123.105 117.014)">
<stop stop-color="#00F727" stop-opacity="0.93"/>
<stop offset="0.0936044" stop-color="#0888E4" stop-opacity="0.67481"/>
<stop offset="1" stop-color="#EDDD4A"/>
</radialGradient>
<radialGradient id="paint1_radial_879_24" cx="0" cy="0" r="1" gradientUnits="userSpaceOnUse" gradientTransform="translate(22.8938 91.7669) rotate(54.3474) scale(99.039 94.1387)">
<stop stop-color="#00F727" stop-opacity="0.93"/>
<stop offset="0.0936044" stop-color="#0888E4" stop-opacity="0.67481"/>
<stop offset="1" stop-color="#EDDD4A"/>
</radialGradient>
<radialGradient id="paint2_radial_879_24" cx="0" cy="0" r="1" gradientUnits="userSpaceOnUse" gradientTransform="translate(21.8492 91.485) rotate(84.3474) scale(75.258 71.5343)">
<stop stop-color="#00F727" stop-opacity="0.93"/>
<stop offset="0.0936044" stop-color="#0888E4" stop-opacity="0.67481"/>
<stop offset="1" stop-color="#EDDD4A"/>
</radialGradient>
</defs>
</svg>
