<svg width="502" height="502" viewBox="0 0 502 502" fill="none" xmlns="http://www.w3.org/2000/svg">
<mask id="mask0_841_71" style="mask-type:alpha" maskUnits="userSpaceOnUse" x="0" y="0" width="502" height="502">
<rect y="502" width="502" height="502" rx="20" transform="rotate(-90 0 502)" fill="#D9D9D9"/>
</mask>
<g mask="url(#mask0_841_71)">
<path fill-rule="evenodd" clip-rule="evenodd" d="M179.821 180.038C187.028 252.626 224.734 316.242 279.942 357.891L281.957 354.4C227.931 313.477 191.016 251.148 183.842 180.038L179.821 180.038ZM281.958 -45.2236C227.931 -4.30145 191.017 58.0284 183.842 129.138L179.821 129.138C187.028 56.5497 224.734 -7.06619 279.942 -48.7146L281.958 -45.2236ZM530.581 -76.2286C500.61 -88.9059 467.658 -95.9162 433.069 -95.9162C394.548 -95.9162 358.058 -87.2215 325.454 -71.6876L323.447 -75.1632C356.645 -91.0313 393.819 -99.9162 433.069 -99.9162C468.387 -99.9162 502.024 -92.7223 532.596 -79.7198L530.581 -76.2286ZM682.296 129.138C674.731 54.156 634.098 -11.064 575.204 -51.7166L577.211 -55.1921C637.293 -13.8298 678.725 52.6763 686.317 129.138L682.296 129.138ZM575.204 360.893C634.098 320.24 674.731 255.02 682.297 180.038L686.317 180.038C678.725 256.5 637.294 323.006 577.211 364.368L575.204 360.893ZM325.454 380.864C358.058 396.398 394.548 405.093 433.069 405.093C467.658 405.093 500.61 398.082 530.581 385.405L532.597 388.896C502.025 401.899 468.387 409.093 433.069 409.093C393.819 409.093 356.645 400.208 323.447 384.339L325.454 380.864Z" fill="#497C4E" fill-opacity="0.51"/>
<path fill-rule="evenodd" clip-rule="evenodd" d="M210.331 123.899C201.807 184.475 219.755 244.043 256.486 289.284L259.33 286.44C223.556 242.202 206.044 184.079 214.224 124.942L210.331 123.899ZM346.793 -43.0868C293.517 -22.3062 249.283 19.8103 227.168 75.714L223.279 74.6718C245.812 17.3493 291.145 -25.8022 345.752 -46.9739L346.793 -43.0868ZM556.197 -10.4276C533.883 -28.5241 507.492 -42.3318 477.948 -50.248C450.421 -57.6237 422.707 -59.2019 396.102 -55.731L395.057 -59.629C422.328 -63.256 450.753 -61.6761 478.983 -54.1117C509.231 -46.0069 536.236 -31.8414 559.042 -13.2718L556.197 -10.4276ZM632.149 184.228C640.646 126.801 624.855 70.195 591.572 26.1829L594.427 23.3278C628.658 68.3541 644.878 126.405 636.038 185.27L632.149 184.228ZM504.402 348.45C555.062 327.329 597.036 286.728 618.745 233.333L622.638 234.376C600.504 289.187 557.435 330.823 505.446 352.347L504.402 348.45ZM295.881 321.873C317.007 337.885 341.523 350.158 368.708 357.442C397.91 365.267 427.323 366.566 455.399 362.235L456.441 366.123C427.701 370.616 397.578 369.319 367.673 361.306C339.784 353.833 314.652 341.208 293.026 324.729L295.881 321.873Z" fill="#497C4E" fill-opacity="0.51"/>
<path fill-rule="evenodd" clip-rule="evenodd" d="M254.959 171.02C261.094 212.682 283.324 249.107 315.13 273.776L317.149 270.278C286.519 246.35 265.078 211.205 259.004 171.02L254.959 171.02ZM311.28 29.6688C280.188 56.4871 259.818 95.3962 257.474 139.094L253.469 139.094C255.831 93.9151 276.977 53.711 309.245 26.144L311.28 29.6688ZM471.304 3.27324C453.264 -4.03883 433.541 -8.06586 412.878 -8.06586C385.557 -8.06586 359.88 -1.02567 337.562 11.3396L335.561 7.87429C358.468 -4.83106 384.828 -12.0659 412.878 -12.0659C434.27 -12.0659 454.68 -7.85786 473.324 -0.224405L471.304 3.27324ZM568.281 139.093C565.58 88.7269 538.931 44.7216 499.516 18.2604L501.521 14.7882C542.127 41.9512 569.576 87.2469 572.287 139.093L568.281 139.093ZM493.191 280.897C531.966 257.491 559.704 217.648 566.752 171.019L570.797 171.019C563.712 219.131 535.164 260.259 495.192 284.362L493.191 280.897ZM344.207 287.263C364.92 297.464 388.23 303.194 412.878 303.194C430.86 303.194 448.13 300.144 464.199 294.533L466.235 298.059C449.55 303.974 431.59 307.194 412.878 307.194C387.501 307.194 363.507 301.272 342.203 290.736L344.207 287.263Z" fill="#497C4E" fill-opacity="0.51"/>
</g>
</svg>
