<svg width="125" height="90" viewBox="0 0 125 90" fill="none" xmlns="http://www.w3.org/2000/svg">
<mask id="mask0_745_32" style="mask-type:alpha" maskUnits="userSpaceOnUse" x="0" y="-4" width="136" height="136">
<rect y="-4" width="136" height="136" rx="20" fill="#D9D9D9"/>
</mask>
<g mask="url(#mask0_745_32)">
<path fill-rule="evenodd" clip-rule="evenodd" d="M87.2241 44.7164C67.5589 46.6689 50.3244 56.884 39.0412 71.8408L42.5333 73.857C53.0888 60.0816 69.0375 50.6567 87.2241 48.7376V44.7164ZM145.705 73.8568C135.15 60.0814 119.201 50.6565 101.014 48.7375V44.7163C120.679 46.6687 137.914 56.8838 149.197 71.8406L145.705 73.8568ZM154.105 138.273C157.303 130.592 159.069 122.165 159.069 113.325C159.069 103.421 156.852 94.0337 152.887 85.6338L156.363 83.6269C160.662 92.6207 163.069 102.692 163.069 113.325C163.069 122.894 161.12 132.007 157.597 140.289L154.105 138.273ZM101.014 177.913C120.249 175.883 136.981 165.458 147.476 150.369L150.952 152.376C139.746 168.653 121.729 179.878 101.014 181.934V177.913ZM40.7624 150.369C51.2576 165.458 67.9892 175.883 87.2241 177.913V181.934C66.5096 179.877 48.4921 168.653 37.2864 152.376L40.7624 150.369ZM35.3519 85.634C31.387 94.0338 29.1699 103.421 29.1699 113.325C29.1699 122.165 30.9357 130.592 34.1338 138.273L30.6415 140.289C27.1189 132.006 25.1699 122.893 25.1699 113.325C25.1699 102.692 27.577 92.6209 31.8759 83.6271L35.3519 85.634Z" fill="#2BB663"/>
<path fill-rule="evenodd" clip-rule="evenodd" d="M102.434 52.9821C86.0231 50.6727 69.8852 55.5351 57.6285 65.486L60.4734 68.331C71.7255 59.3362 86.4186 54.9097 101.391 56.8774L102.434 52.9821ZM144.838 90.7119C139.495 77.2483 128.839 66.0658 114.728 60.3808L115.771 56.4902C131.3 62.5949 142.99 74.8763 148.726 89.6701L144.838 90.7119ZM136.751 144.608C141.309 138.922 144.789 132.22 146.796 124.729C148.656 117.785 149.082 110.795 148.254 104.073L152.154 103.028C153.137 110.416 152.709 118.116 150.66 125.764C148.464 133.959 144.626 141.275 139.596 147.453L136.751 144.608ZM86.8501 164.423C101.359 166.476 115.642 162.51 126.824 154.183L129.68 157.04C117.482 166.314 101.755 170.708 85.8077 168.313L86.8501 164.423ZM44.4428 131.889C49.8684 144.645 60.1136 155.22 73.5477 160.788L72.504 164.683C57.6547 158.687 46.3746 147.018 40.5432 132.934L44.4428 131.889ZM50.8826 78.242C46.8841 83.6001 43.8158 89.7923 41.9799 96.6439C39.9976 104.042 39.6441 111.493 40.6997 118.616L36.8112 119.657C35.5938 111.872 35.9453 103.711 38.1162 95.6086C40.1407 88.0529 43.5612 81.2441 48.0258 75.3852L50.8826 78.242Z" fill="#2BB663"/>
<path fill-rule="evenodd" clip-rule="evenodd" d="M89.667 65.0725C78.38 66.7346 68.5118 72.7572 61.8287 81.3739L65.3286 83.3946C71.2675 75.9523 79.8567 70.7179 89.667 69.1207V65.0725ZM125.387 81.8166C118.671 74.2487 109.075 69.295 98.3163 68.6748V64.6687C110.556 65.3085 121.448 71.0373 128.916 79.7789L125.387 81.8166ZM132.56 122.211C134.308 117.764 135.268 112.922 135.268 107.855C135.268 100.985 133.503 94.5263 130.4 88.9093L133.866 86.9086C137.308 93.1143 139.268 100.256 139.268 107.855C139.268 113.651 138.128 119.18 136.06 124.231L132.56 122.211ZM98.3163 147.036C110.882 146.311 121.864 139.675 128.52 129.865L131.993 131.87C124.634 142.871 112.362 150.308 98.3163 151.042V147.036ZM62.426 128.154C68.2583 137.787 78.1162 144.709 89.667 146.59V150.638C76.6328 148.719 65.4906 140.984 58.9607 130.155L62.426 128.154ZM60.7069 90.7135C58.1882 95.8927 56.7754 101.709 56.7754 107.855C56.7754 112.195 57.4797 116.37 58.7801 120.272L55.2501 122.31C53.6476 117.79 52.7754 112.925 52.7754 107.855C52.7754 100.98 54.3796 94.4801 57.2341 88.7085L60.7069 90.7135Z" fill="#2BB663"/>
</g>
</svg>
