<svg width="13" height="13" viewBox="0 0 13 13" fill="none" xmlns="http://www.w3.org/2000/svg">
<path fill-rule="evenodd" clip-rule="evenodd" d="M9.06047 0.677002C8.71157 0.677002 8.42336 0.822981 8.15058 1.03111C7.89214 1.22829 7.60519 1.51526 7.26107 1.8594L4.29223 4.82819C4.06426 5.0558 3.88399 5.23576 3.77344 5.46578C3.66289 5.6958 3.63497 5.94899 3.59966 6.26919L3.59007 6.35572C3.52402 6.95003 3.46958 7.4399 3.48204 7.82577C3.49507 8.22934 3.58228 8.599 3.87121 8.88792C4.16013 9.17684 4.52979 9.26406 4.93335 9.27709C5.31922 9.28955 5.80908 9.23511 6.40338 9.16906L6.48995 9.15947C6.81014 9.12416 7.06333 9.09624 7.29334 8.98568C7.52336 8.87513 7.70332 8.69487 7.93092 8.4669L10.8997 5.49807C11.2439 5.15394 11.5308 4.86699 11.728 4.60855C11.9361 4.33576 12.0821 4.04755 12.0821 3.69865C12.0821 3.34975 11.9361 3.06154 11.728 2.78875C11.5308 2.53031 11.2439 2.24336 10.8997 1.89924L10.8599 1.85942C10.5158 1.51527 10.2288 1.22829 9.97037 1.03111C9.69759 0.822981 9.40938 0.677002 9.06047 0.677002ZM10.5918 4.6555L8.10363 2.16728C8.32335 1.9508 8.4933 1.7916 8.64343 1.67706C8.84394 1.52408 8.96065 1.4895 9.06047 1.4895C9.1603 1.4895 9.27701 1.52408 9.47753 1.67706C9.68741 1.8372 9.93605 2.08462 10.3053 2.45385C10.6745 2.82308 10.9219 3.07172 11.0821 3.2816C11.235 3.48211 11.2696 3.59882 11.2696 3.69865C11.2696 3.79848 11.235 3.91519 11.0821 4.1157C10.9675 4.26582 10.8083 4.43577 10.5918 4.6555ZM7.52841 2.74111L10.018 5.23071L7.39555 7.85318C7.10985 8.13888 7.0309 8.21035 6.94138 8.25338C6.85185 8.2964 6.74673 8.31341 6.34516 8.35802C5.71141 8.42844 5.28008 8.47536 4.95958 8.46501C4.64997 8.45501 4.52498 8.39265 4.44573 8.3134C4.36648 8.23414 4.30411 8.10915 4.29411 7.79955C4.28376 7.47905 4.33068 7.04771 4.4011 6.41397C4.44572 6.0124 4.46272 5.90728 4.50575 5.81775C4.54878 5.72822 4.62025 5.64927 4.90595 5.36357L7.52841 2.74111Z" fill="#8B8B8B"/>
<path d="M4.87954 2.12784C5.10389 2.12515 5.28358 1.9411 5.28089 1.71675C5.27821 1.4924 5.09415 1.31271 4.8698 1.31539C3.55544 1.33115 2.65327 1.40307 1.96064 1.90629C1.69622 2.0984 1.4637 2.33093 1.27159 2.59534C0.954267 3.0321 0.812178 3.54364 0.743777 4.17497C0.67675 4.79363 0.676753 5.57341 0.676758 6.5682V6.61722C0.676753 7.61201 0.67675 8.3918 0.743777 9.01045C0.812178 9.64179 0.954267 10.1533 1.27159 10.5901C1.4637 10.8545 1.69622 11.087 1.96064 11.2791C2.39739 11.5965 2.90893 11.7385 3.54027 11.8069C4.15891 11.874 4.93868 11.874 5.93344 11.874H5.98253C6.97729 11.874 7.7571 11.874 8.37575 11.8069C9.00708 11.7385 9.51862 11.5965 9.95538 11.2791C10.2198 11.087 10.4523 10.8545 10.6444 10.5901C11.1477 9.89745 11.2196 8.99528 11.2353 7.68092C11.238 7.45657 11.0583 7.27251 10.834 7.26982C10.6096 7.26714 10.4256 7.44683 10.4229 7.67118C10.4066 9.02578 10.3155 9.66057 9.9871 10.1125C9.84511 10.3079 9.67324 10.4798 9.4778 10.6218C9.20263 10.8217 8.85043 10.9383 8.28823 10.9992C7.71843 11.0609 6.98261 11.0615 5.95801 11.0615C4.93341 11.0615 4.19759 11.0609 3.62778 10.9992C3.06558 10.9383 2.71338 10.8217 2.43821 10.6218C2.24278 10.4798 2.07091 10.3079 1.92892 10.1125C1.72899 9.83734 1.61246 9.48514 1.55155 8.92294C1.48982 8.35313 1.48926 7.61731 1.48926 6.59271C1.48926 5.56811 1.48982 4.83229 1.55155 4.26249C1.61246 3.70028 1.72899 3.34808 1.92892 3.07292C2.07091 2.87748 2.24278 2.70561 2.43821 2.56362C2.89015 2.23527 3.52494 2.14407 4.87954 2.12784Z" fill="#8B8B8B"/>
</svg>
