<svg width="57" height="57" viewBox="0 0 57 57" fill="none" xmlns="http://www.w3.org/2000/svg">
<circle cx="28.5" cy="28.5" r="28.5" fill="url(#paint0_linear_532_513)" fill-opacity="0.84"/>
<circle cx="28.5" cy="28.5" r="28" stroke="#70B68C" stroke-opacity="0.17"/>
<path d="M20.2584 28.7364L22.3624 32.0374C22.6199 32.2633 22.915 32.4205 23.2196 32.5024C23.6687 32.6203 24.1397 32.5679 24.5385 32.3026C24.5574 32.2895 24.5762 32.2764 24.5982 32.2633C24.9782 31.9882 25.2262 31.5592 25.3173 31.0844C25.4084 30.6063 25.3361 30.0889 25.0661 29.6501C25.0504 29.6271 25.0378 29.6042 25.0221 29.5813L22.2807 25.4845C21.951 24.99 21.4831 24.656 20.9869 24.525C20.5379 24.4039 20.0669 24.4595 19.668 24.7248C19.6492 24.7379 19.6304 24.751 19.6084 24.7641C19.2284 25.0392 18.9803 25.4714 18.8893 25.943C18.7982 26.4211 18.8704 26.9385 19.1405 27.3774C19.1562 27.4003 19.1687 27.4232 19.1844 27.4461L19.3006 27.623C19.6429 27.9111 19.9664 28.2812 20.2584 28.7364ZM24.9279 10.9511C24.8965 10.9609 24.862 10.9675 24.8306 10.974C24.3438 11.105 23.9513 11.4456 23.7001 11.8942C23.4269 12.3822 23.3233 12.9913 23.4552 13.6037L26.0144 25.6909C26.4321 25.3503 26.9063 25.1047 27.4432 24.9606C28.1592 24.7674 28.9631 24.7739 29.8643 24.9933C29.4844 23.2282 29.1138 21.4467 28.7464 19.6653C28.2471 17.2583 27.7478 14.8513 27.2831 12.7424C27.2705 12.7031 27.2642 12.6638 27.2548 12.6245C27.1135 12.0416 26.7775 11.5635 26.3442 11.2622C25.9265 10.9707 25.4272 10.8463 24.9279 10.9511ZM35.9909 8.39349C36.0474 8.39349 36.104 8.40004 36.1574 8.40986C37.1716 8.54085 38.0446 9.10084 38.6413 9.90971C39.2285 10.7055 39.5457 11.7403 39.4609 12.8341C39.4609 12.8898 39.4546 12.9422 39.4452 12.9945L38.1577 26.5194H38.1608C38.1577 26.539 38.1577 26.5554 38.1545 26.575C38.3398 26.7257 38.5125 26.8927 38.6727 27.0761C39.3415 27.8358 39.7749 28.8477 39.9633 30.0103C40.2396 31.7197 40.315 33.7501 40.1454 35.7248C39.9884 37.5488 39.6273 39.3368 39.0275 40.8072C37.5924 44.3243 35.0457 46.728 32.1033 47.8644C30.731 48.3949 29.2771 48.6503 27.8138 48.6143C26.3442 48.5783 24.8651 48.2541 23.4489 47.6253C20.6509 46.3809 18.0917 43.9543 16.3457 40.2309C15.4947 38.4134 15.3628 37.2803 15.0048 35.3711C14.9483 35.06 15.0425 34.7554 15.234 34.5393L14.0753 32.7218C13.1238 31.2285 13.2808 29.6828 14.0094 28.5334C14.2888 28.0945 14.6531 27.7179 15.0708 27.4298C15.4915 27.1383 15.9689 26.932 16.4713 26.8403C16.6848 26.801 16.8984 26.7814 17.115 26.7846C17.0679 26.3818 17.0836 25.979 17.159 25.5861C17.3349 24.6626 17.8373 23.8144 18.6035 23.2577C18.6412 23.2282 18.682 23.202 18.7228 23.1725C19.5581 22.6191 20.519 22.4979 21.4203 22.737C22.309 22.9728 23.138 23.5622 23.7189 24.4301L23.9325 24.7477L21.6589 14.0097C21.4234 12.9061 21.6118 11.8025 22.108 10.9183C22.6136 10.0145 23.4363 9.33335 24.4663 9.08447C24.4883 9.07792 24.5134 9.07464 24.5354 9.07137C25.5403 8.85196 26.5451 9.09429 27.3647 9.6641C28.1843 10.2372 28.8155 11.141 29.0573 12.2414H29.0604C29.0636 12.261 29.0667 12.2839 29.073 12.3036C29.5786 14.5992 30.0622 16.9276 30.5458 19.2526C30.6996 20.0026 30.8567 20.7492 31.0105 21.4893L31.8961 12.2053C31.8961 12.1497 31.9024 12.0973 31.9118 12.0449C32.0374 10.9576 32.543 10.008 33.2683 9.34972C34.0063 8.68494 34.9703 8.31162 35.9909 8.39349ZM37.1842 11.0854C36.8796 10.6727 36.4463 10.3878 35.947 10.3191C35.9281 10.3191 35.9093 10.3158 35.8904 10.3158V10.3092C35.366 10.2536 34.8636 10.4468 34.4773 10.7972C34.0848 11.1541 33.8116 11.6683 33.7394 12.2643C33.7394 12.2839 33.7362 12.3068 33.7362 12.3265H33.73L32.5241 24.9704L36.418 25.3732L37.6176 12.8046C37.6176 12.7784 37.6207 12.7555 37.6207 12.7293H37.6238C37.6835 12.1104 37.5108 11.5242 37.1842 11.0854ZM23.5211 34.4018C23.6184 34.929 23.6059 35.4661 23.496 35.9769C23.295 36.9135 22.7674 37.7649 21.9761 38.3151C21.9635 38.3217 21.9227 38.3511 21.8536 38.3937L21.8568 38.397C21.8411 38.4068 21.8285 38.4134 21.816 38.4199C20.9681 38.9406 20.0009 39.029 19.1028 38.767C18.5281 38.6 17.9786 38.2856 17.5107 37.8501C18.6098 41.3476 20.5724 44.2686 24.1711 45.8667C25.3707 46.4005 26.6174 46.6756 27.8483 46.7051C29.0856 46.7346 30.3103 46.5217 31.4627 46.073C33.9498 45.1103 36.1071 43.0635 37.3349 40.0573C37.8594 38.7736 38.1765 37.1886 38.3178 35.561C38.4717 33.7501 38.4058 31.8933 38.1514 30.3247C38.0195 29.5191 37.7432 28.8445 37.3224 28.3663C36.9518 27.9439 36.4494 27.6623 35.8276 27.5738C34.4491 27.3806 31.9557 27.4265 28.3822 27.492C27.9959 27.4985 27.6002 27.5051 27.1889 27.5149C26.9753 28.2517 26.9502 28.8936 27.0633 29.4405C27.17 29.9546 27.4024 30.3934 27.7259 30.7504C28.0681 31.1303 28.5078 31.4283 29.0008 31.6411C29.8989 32.0243 30.9571 32.1225 31.9243 31.9162C32.4048 31.7819 32.9041 32.0668 33.0485 32.5679C33.193 33.0755 32.9166 33.6125 32.4299 33.7664L32.1661 32.8462L32.4299 33.7664C28.803 34.8995 28.7904 35.3744 28.7401 37.1657C28.737 37.2868 28.7339 37.4113 28.7307 37.4866C28.715 38.0171 28.2911 38.4297 27.7824 38.4134C27.2768 38.397 26.878 37.9549 26.8937 37.4244C26.8968 37.2836 26.9 37.1951 26.9031 37.11C26.9534 35.2565 26.9785 34.2773 28.288 33.4062C27.7133 33.1606 27.1857 32.8266 26.7304 32.414C26.4729 32.9445 26.0929 33.4128 25.6093 33.7664C25.5685 33.7959 25.5308 33.8221 25.49 33.8516C24.8745 34.2577 24.1962 34.4312 23.5211 34.4018ZM21.0089 33.2392C20.8174 33.046 20.6415 32.8331 20.4845 32.5974L18.0445 28.9525C17.6238 28.6643 17.181 28.5825 16.7728 28.6578C16.5121 28.7069 16.264 28.8117 16.0411 28.9656C15.8181 29.1195 15.6234 29.3193 15.4758 29.5518C15.1084 30.1282 15.0394 30.9207 15.5418 31.7099L18.2581 35.9736C18.5878 36.4943 19.062 36.8513 19.5676 36.9954C20.0197 37.1264 20.4971 37.0871 20.9116 36.8349C20.921 36.8284 20.9273 36.8218 20.9367 36.8185V36.8218C20.943 36.8185 20.9524 36.812 20.9964 36.7792C21.3983 36.5009 21.6684 36.0621 21.7689 35.5774C21.8725 35.0895 21.8065 34.5524 21.5365 34.0874C21.5145 34.0514 21.5019 34.0252 21.4925 34.0153L21.0089 33.2392Z" fill="#70B68C"/>
<defs>
<linearGradient id="paint0_linear_532_513" x1="109.809" y1="44.4265" x2="-20.9559" y2="25.9853" gradientUnits="userSpaceOnUse">
<stop offset="0.231288" stop-color="#030303"/>
<stop offset="1" stop-color="#21A436"/>
</linearGradient>
</defs>
</svg>
