<svg width="24" height="24" viewBox="0 0 24 24" fill="none" xmlns="http://www.w3.org/2000/svg">
<g clip-path="url(#clip0_795_42)">
<path d="M7.98633 22.1422C7.98633 22.286 8.06618 22.4179 8.19316 22.4851C8.32005 22.5522 8.47433 22.5436 8.59292 22.4624L11.2639 20.6386L7.98638 19.0764V22.1422H7.98633Z" fill="#353535"/>
<path d="M23.8753 1.573C23.8019 1.50536 23.7072 1.46997 23.6115 1.46997C23.5538 1.46997 23.4963 1.48277 23.4418 1.50953L0.383235 12.8204C0.147551 12.9362 -0.00158724 13.1769 1.27467e-05 13.4402C0.00161274 13.7031 0.153272 13.9421 0.390653 14.0554L6.4678 16.9511L18.619 6.96376L7.97349 17.6685L15.5441 21.2757C15.6371 21.3203 15.7386 21.3424 15.8391 21.3424C15.9248 21.3424 16.0097 21.3268 16.0905 21.2951C16.2669 21.2253 16.407 21.0857 16.477 20.9093L23.9725 2.00034C24.0318 1.85154 23.9931 1.68141 23.8753 1.573Z" fill="#353535"/>
</g>
<defs>
<clipPath id="clip0_795_42">
<rect width="24" height="24" fill="white"/>
</clipPath>
</defs>
</svg>
