<svg width="39" height="36" viewBox="0 0 39 36" fill="none" xmlns="http://www.w3.org/2000/svg">
<g filter="url(#filter0_iii_92_19)">
<path d="M17.6057 1.592C18.2192 -0.219102 20.7808 -0.219098 21.3943 1.592L24.5405 10.8798C24.8155 11.6917 25.5775 12.2381 26.4347 12.2381H36.4329C38.3905 12.2381 39.1825 14.7597 37.5764 15.879L29.6331 21.4146C28.9027 21.9236 28.5967 22.854 28.8823 23.6971L31.9499 32.7529C32.5691 34.5809 30.4956 36.1389 28.9121 35.0354L20.6435 29.2731C19.9564 28.7942 19.0436 28.7942 18.3565 29.2731L10.0879 35.0354C8.50437 36.1389 6.43087 34.5809 7.05011 32.7529L10.1177 23.6971C10.4033 22.854 10.0973 21.9236 9.36693 21.4146L1.42357 15.879C-0.182475 14.7597 0.609497 12.2381 2.56707 12.2381H12.5653C13.4225 12.2381 14.1845 11.6917 14.4595 10.8798L17.6057 1.592Z" fill="url(#paint0_linear_92_19)" fill-opacity="0.3"/>
</g>
<path d="M18.0793 1.75242C18.5394 0.394093 20.4606 0.394094 20.9207 1.75242L24.0669 11.0402C24.4107 12.0551 25.3631 12.7381 26.4347 12.7381H36.4329C37.9011 12.7381 38.4951 14.6293 37.2906 15.4687L29.3472 21.0044C28.4343 21.6406 28.0517 22.8036 28.4087 23.8575L31.4763 32.9133C31.9408 34.2843 30.3856 35.4528 29.198 34.6252L20.9294 28.8629C20.0705 28.2643 18.9295 28.2643 18.0706 28.8629L9.802 34.6252C8.61438 35.4528 7.05925 34.2843 7.52368 32.9133L10.5913 23.8575C10.9483 22.8036 10.5657 21.6406 9.65281 21.0044L1.70945 15.4687C0.504909 14.6293 1.09889 12.7381 2.56707 12.7381H12.5653C13.6369 12.7381 14.5893 12.0551 14.9331 11.0402L18.0793 1.75242Z" stroke="black" stroke-opacity="0.17"/>
<defs>
<filter id="filter0_iii_92_19" x="0.563232" y="0.233887" width="37.8735" height="39.1694" filterUnits="userSpaceOnUse" color-interpolation-filters="sRGB">
<feFlood flood-opacity="0" result="BackgroundImageFix"/>
<feBlend mode="normal" in="SourceGraphic" in2="BackgroundImageFix" result="shape"/>
<feColorMatrix in="SourceAlpha" type="matrix" values="0 0 0 0 0 0 0 0 0 0 0 0 0 0 0 0 0 0 127 0" result="hardAlpha"/>
<feOffset dy="4"/>
<feGaussianBlur stdDeviation="2"/>
<feComposite in2="hardAlpha" operator="arithmetic" k2="-1" k3="1"/>
<feColorMatrix type="matrix" values="0 0 0 0 1 0 0 0 0 1 0 0 0 0 1 0 0 0 0.25 0"/>
<feBlend mode="normal" in2="shape" result="effect1_innerShadow_92_19"/>
<feColorMatrix in="SourceAlpha" type="matrix" values="0 0 0 0 0 0 0 0 0 0 0 0 0 0 0 0 0 0 127 0" result="hardAlpha"/>
<feOffset dy="4"/>
<feGaussianBlur stdDeviation="2"/>
<feComposite in2="hardAlpha" operator="arithmetic" k2="-1" k3="1"/>
<feColorMatrix type="matrix" values="0 0 0 0 1 0 0 0 0 1 0 0 0 0 1 0 0 0 0.25 0"/>
<feBlend mode="normal" in2="effect1_innerShadow_92_19" result="effect2_innerShadow_92_19"/>
<feColorMatrix in="SourceAlpha" type="matrix" values="0 0 0 0 0 0 0 0 0 0 0 0 0 0 0 0 0 0 127 0" result="hardAlpha"/>
<feOffset dy="4"/>
<feGaussianBlur stdDeviation="2"/>
<feComposite in2="hardAlpha" operator="arithmetic" k2="-1" k3="1"/>
<feColorMatrix type="matrix" values="0 0 0 0 1 0 0 0 0 1 0 0 0 0 1 0 0 0 0.25 0"/>
<feBlend mode="normal" in2="effect2_innerShadow_92_19" result="effect3_innerShadow_92_19"/>
</filter>
<linearGradient id="paint0_linear_92_19" x1="19.5" y1="-4" x2="19.5" y2="43" gradientUnits="userSpaceOnUse">
<stop offset="0.1875" stop-opacity="0.16"/>
<stop offset="0.802083" stop-color="#555B57" stop-opacity="0.19"/>
</linearGradient>
</defs>
</svg>
