<svg width="671" height="190" viewBox="0 0 671 190" fill="none" xmlns="http://www.w3.org/2000/svg">
<path d="M10.872 141.848C8.04 139.88 7.608 137.408 9.576 134.432L36.792 94.4L9.144 55.52C7.224 52.784 7.68 50.312 10.512 48.104C13.392 46.136 15.84 46.592 17.856 49.472L43.704 85.76L69.984 49.472C72.144 46.64 74.592 46.256 77.328 48.32C80.16 50.432 80.568 52.88 78.552 55.664L50.184 94.904L78.264 134.288C80.232 137.168 79.776 139.688 76.896 141.848C74.016 143.816 71.592 143.36 69.624 140.48L43.344 103.616L18.288 140.552C16.32 143.336 13.848 143.768 10.872 141.848ZM96.75 143C93.198 143 91.422 141.224 91.422 137.672V52.28C91.422 48.728 93.198 46.952 96.75 46.952H130.446C139.038 46.952 145.59 49.232 150.102 53.792C154.614 58.304 156.87 64.856 156.87 73.448V77.768C156.87 86.36 154.614 92.912 150.102 97.424C145.59 101.936 139.038 104.192 130.446 104.192H102.006V137.672C102.006 141.224 100.254 143 96.75 143ZM102.006 93.608H130.446C136.11 93.608 140.166 92.384 142.614 89.936C145.062 87.488 146.286 83.432 146.286 77.768V73.448C146.286 67.784 145.062 63.728 142.614 61.28C140.166 58.784 136.11 57.536 130.446 57.536H102.006V93.608ZM171.731 143C168.179 143 166.403 141.224 166.403 137.672V52.28C166.403 48.728 168.179 46.952 171.731 46.952C175.235 46.952 176.987 48.728 176.987 52.28V132.416H218.171C221.723 132.416 223.499 134.168 223.499 137.672C223.499 141.224 221.723 143 218.171 143H171.731ZM451.262 143.216C449.87 144.128 448.55 144.416 447.302 144.08C446.054 143.744 444.974 142.88 444.062 141.488L421.31 104.192H399.062V137.672C399.062 141.224 397.31 143 393.806 143C390.254 143 388.478 141.224 388.478 137.672V52.28C388.478 48.728 390.254 46.952 393.806 46.952H427.502C436.094 46.952 442.646 49.232 447.158 53.792C451.67 58.304 453.926 64.856 453.926 73.448V77.768C453.926 85.256 452.174 91.208 448.67 95.624C445.214 100.04 440.174 102.752 433.55 103.76L453.206 136.016C454.886 138.992 454.238 141.392 451.262 143.216ZM399.062 93.608H427.502C433.166 93.608 437.222 92.384 439.67 89.936C442.118 87.488 443.342 83.432 443.342 77.768V73.448C443.342 67.784 442.118 63.728 439.67 61.28C437.222 58.784 433.166 57.536 427.502 57.536H399.062V93.608ZM494.067 143C483.267 143 475.299 140.456 470.163 135.368C465.075 130.232 462.531 122.264 462.531 111.464V52.28C462.531 50.552 462.987 49.232 463.899 48.32C464.811 47.408 466.131 46.952 467.859 46.952C469.587 46.952 470.883 47.408 471.747 48.32C472.659 49.232 473.115 50.552 473.115 52.28V111.464C473.115 116.744 473.763 120.92 475.059 123.992C476.355 127.016 478.515 129.176 481.539 130.472C484.611 131.768 488.787 132.416 494.067 132.416H511.347C516.579 132.416 520.707 131.768 523.731 130.472C526.803 129.176 528.987 127.016 530.283 123.992C531.579 120.92 532.227 116.744 532.227 111.464V52.28C532.227 50.552 532.683 49.232 533.595 48.32C534.507 47.408 535.827 46.952 537.555 46.952C539.283 46.952 540.579 47.408 541.443 48.32C542.355 49.232 542.811 50.552 542.811 52.28V111.464C542.811 122.264 540.267 130.232 535.179 135.368C530.091 140.456 522.147 143 511.347 143H494.067ZM562.618 143C559.066 143 557.29 141.224 557.29 137.672V52.28C557.29 48.728 559.066 46.952 562.618 46.952C564.97 46.952 566.914 48.104 568.45 50.408L603.082 102.752L600.778 103.112L635.554 50.408C636.994 48.104 639.13 46.952 641.962 46.952C644.89 46.952 646.354 48.728 646.354 52.28V137.672C646.354 141.224 644.602 143 641.098 143C637.546 143 635.77 141.224 635.77 137.672V62.864L639.01 63.944L607.762 110.528C606.226 112.784 604.09 113.912 601.354 113.912C599.338 113.912 597.562 112.784 596.026 110.528L564.778 63.944L567.874 64.88V137.672C567.874 141.224 566.122 143 562.618 143Z" fill="white"/>
<path opacity="0.0344828" d="M345.185 127.796C344.684 128.366 343.899 128.762 342.733 128.905C341.558 129.049 340.061 128.926 338.252 128.508C334.635 127.672 329.978 125.707 324.582 122.742C313.805 116.82 300.276 107.018 286.569 94.7326C272.863 82.4473 261.621 70.0469 254.522 59.946C250.968 54.8889 248.485 50.4543 247.235 46.9289C246.611 45.1657 246.312 43.68 246.316 42.4861C246.319 41.3007 246.617 40.4675 247.118 39.8983C247.619 39.329 248.404 38.9324 249.57 38.7893C250.745 38.6453 252.242 38.7687 254.051 39.1869C257.667 40.023 262.324 41.9879 267.72 44.9529C278.498 50.875 292.027 60.6769 305.733 72.9621C319.44 85.2474 330.682 97.6478 337.781 107.749C341.335 112.806 343.818 117.24 345.067 120.766C345.692 122.529 345.99 124.015 345.987 125.209C345.984 126.394 345.686 127.227 345.185 127.796Z" stroke="#4DE55D" stroke-width="2"/>
<path opacity="0.0689655" d="M341.186 132.48C340.638 133.003 339.822 133.329 338.648 133.369C337.466 133.409 335.985 133.155 334.219 132.579C330.688 131.428 326.219 129.06 321.099 125.632C310.875 118.784 298.244 107.829 285.651 94.3845C273.059 80.9398 262.931 67.5972 256.732 56.9098C253.628 51.559 251.537 46.9225 250.597 43.3003C250.127 41.4887 249.959 39.9823 250.065 38.7932C250.171 37.6125 250.539 36.8092 251.087 36.2866C251.635 35.7641 252.45 35.438 253.624 35.3981C254.807 35.3578 256.288 35.6125 258.054 36.1882C261.584 37.3393 266.054 39.7065 271.173 43.135C281.398 49.9829 294.028 60.9379 306.621 74.3825C319.214 87.8272 329.341 101.17 335.541 111.857C338.645 117.208 340.735 121.844 341.675 125.467C342.145 127.278 342.314 128.785 342.208 129.974C342.102 131.154 341.733 131.958 341.186 132.48Z" stroke="#4DE55D" stroke-width="2"/>
<path opacity="0.103448" d="M336.843 136.799C336.253 137.271 335.413 137.524 334.24 137.461C333.059 137.397 331.605 137.013 329.896 136.284C326.478 134.826 322.23 132.075 317.427 128.209C307.833 120.487 296.197 108.463 284.813 93.9609C273.43 79.4592 264.494 65.2758 259.241 54.0832C256.612 48.4795 254.93 43.6764 254.306 39.9849C253.994 38.1387 253.956 36.623 254.165 35.4478C254.372 34.2808 254.808 33.5134 255.399 33.0414C255.989 32.5695 256.829 32.3164 258.002 32.3798C259.183 32.4437 260.637 32.8277 262.346 33.5566C265.764 35.014 270.012 37.7655 274.816 41.6314C284.41 49.3529 296.046 61.3777 307.429 75.8794C318.812 90.3812 327.748 104.565 333.001 115.757C335.63 121.361 337.313 126.164 337.936 129.855C338.248 131.702 338.286 133.217 338.077 134.393C337.87 135.56 337.434 136.327 336.843 136.799Z" stroke="#4DE55D" stroke-width="2"/>
<path opacity="0.137931" d="M332.191 140.722C331.563 141.14 330.705 141.318 329.542 141.152C328.371 140.984 326.956 140.474 325.316 139.597C322.037 137.845 318.043 134.73 313.592 130.456C304.701 121.92 294.149 108.916 284.062 93.468C273.975 78.0196 266.298 63.1035 262.032 51.4908C259.896 45.6768 258.636 40.7437 258.333 37.011C258.182 35.1442 258.275 33.6308 258.584 32.4783C258.892 31.334 259.392 30.6083 260.021 30.1904C260.649 29.7726 261.507 29.5942 262.67 29.7606C263.841 29.9282 265.256 30.4385 266.896 31.3151C270.175 33.0677 274.169 36.1826 278.62 40.4565C287.511 48.9929 298.063 61.996 308.15 77.4445C318.237 92.8929 325.914 107.809 330.18 119.422C332.316 125.236 333.576 130.169 333.879 133.901C334.03 135.768 333.937 137.282 333.627 138.434C333.32 139.579 332.819 140.304 332.191 140.722Z" stroke="#4DE55D" stroke-width="2"/>
<path opacity="0.172414" d="M327.264 144.225C326.603 144.586 325.733 144.688 324.589 144.42C323.437 144.15 322.072 143.517 320.513 142.499C317.398 140.465 313.688 137.01 309.624 132.361C301.504 123.075 292.115 109.192 283.401 92.9146C274.688 76.637 268.328 61.1016 265.082 49.1573C263.457 43.1771 262.627 38.1516 262.648 34.4062C262.658 32.5329 262.882 31.0334 263.29 29.9125C263.695 28.7994 264.256 28.1209 264.917 27.7602C265.578 27.3996 266.448 27.2972 267.593 27.5653C268.745 27.8352 270.11 28.4681 271.668 29.4857C274.783 31.5202 278.493 34.9748 282.558 39.6241C290.677 48.9105 300.066 62.793 308.78 79.0705C317.494 95.3481 323.853 110.883 327.099 122.828C328.725 128.808 329.555 133.834 329.534 137.579C329.523 139.452 329.299 140.952 328.892 142.073C328.487 143.186 327.925 143.864 327.264 144.225Z" stroke="#4DE55D" stroke-width="2"/>
<path opacity="0.206897" d="M322.1 147.285C321.411 147.586 320.536 147.611 319.419 147.244C318.295 146.873 316.989 146.123 315.525 144.972C312.597 142.671 309.2 138.903 305.552 133.913C298.267 123.948 290.113 109.292 282.838 92.3088C275.564 75.3259 270.571 59.2896 268.368 47.1044C267.266 41.0037 266.873 35.9239 267.218 32.1943C267.39 30.3289 267.742 28.8547 268.245 27.7738C268.744 26.7005 269.362 26.0743 270.051 25.7734C270.741 25.4725 271.616 25.4469 272.732 25.8146C273.857 26.1849 275.162 26.9355 276.626 28.0863C279.554 30.3873 282.951 34.1553 286.599 39.1447C293.885 49.1103 302.039 63.7665 309.313 80.7494C316.588 97.7322 321.581 113.769 323.783 125.954C324.886 132.054 325.278 137.134 324.934 140.864C324.762 142.729 324.409 144.203 323.906 145.284C323.407 146.358 322.789 146.984 322.1 147.285Z" stroke="#4DE55D" stroke-width="2"/>
<path opacity="0.241379" d="M316.738 149.882C316.026 150.121 315.152 150.07 314.071 149.605C312.983 149.137 311.748 148.275 310.388 146.999C307.671 144.449 304.612 140.397 301.409 135.105C295.012 124.536 288.155 109.218 282.375 91.6589C276.596 74.1 273.007 57.6847 271.865 45.3516C271.294 39.1768 271.342 34.0814 272.007 30.396C272.34 28.5527 272.818 27.1149 273.412 26.0824C274.002 25.057 274.672 24.4878 275.384 24.2488C276.096 24.0098 276.969 24.0612 278.05 24.5257C279.138 24.9935 280.374 25.856 281.733 27.1314C284.451 29.6813 287.51 33.734 290.712 39.0256C297.11 49.5946 303.966 64.913 309.746 82.4718C315.526 100.031 319.115 116.446 320.256 128.779C320.828 134.954 320.78 140.049 320.115 143.735C319.782 145.578 319.304 147.016 318.709 148.048C318.119 149.074 317.45 149.643 316.738 149.882Z" stroke="#4DE55D" stroke-width="2"/>
<path opacity="0.275862" d="M311.218 152.001C310.488 152.176 309.623 152.048 308.586 151.49C307.543 150.929 306.386 149.961 305.142 148.57C302.655 145.791 299.958 141.484 297.225 135.931C291.765 124.839 286.257 108.975 282.016 90.9738C277.776 72.9726 275.618 56.3033 275.546 43.916C275.511 37.7141 275.998 32.642 276.979 29.0288C277.47 27.2216 278.07 25.8313 278.752 24.8549C279.428 23.8853 280.144 23.3774 280.873 23.202C281.603 23.0266 282.468 23.1544 283.505 23.7123C284.548 24.274 285.705 25.242 286.949 26.6322C289.436 29.4116 292.133 33.7182 294.866 39.2716C300.326 50.3636 305.833 66.2275 310.074 84.2288C314.315 102.23 316.473 118.899 316.544 131.287C316.58 137.489 316.093 142.561 315.112 146.174C314.621 147.981 314.021 149.371 313.339 150.348C312.663 151.317 311.947 151.825 311.218 152.001Z" stroke="#4DE55D" stroke-width="2"/>
<path opacity="0.310345" d="M305.582 153.63C304.841 153.74 303.99 153.537 303.005 152.89C302.014 152.238 300.946 151.172 299.827 149.678C297.589 146.69 295.275 142.163 293.031 136.39C288.551 124.859 284.434 108.57 281.764 90.2637C279.095 71.9571 278.385 55.1607 279.384 42.8136C279.883 36.6318 280.807 31.6216 282.097 28.1082C282.741 26.351 283.46 25.0186 284.223 24.1059C284.98 23.1994 285.737 22.7565 286.479 22.646C287.22 22.5355 288.071 22.7388 289.055 23.3857C290.046 24.0371 291.115 25.1032 292.234 26.5976C294.471 29.5853 296.786 34.113 299.029 39.886C303.51 51.4166 307.626 67.7053 310.296 86.0119C312.966 104.318 313.675 121.115 312.677 133.462C312.177 139.644 311.254 144.654 309.964 148.167C309.319 149.925 308.601 151.257 307.838 152.17C307.08 153.076 306.323 153.519 305.582 153.63Z" stroke="#4DE55D" stroke-width="2"/>
<path opacity="0.344828" d="M299.874 154.76C299.126 154.805 298.296 154.528 297.371 153.797C296.44 153.06 295.468 151.904 294.482 150.317C292.511 147.144 290.597 142.43 288.861 136.481C285.393 124.6 282.699 108.01 281.621 89.5375C280.542 71.0649 281.287 54.2692 283.348 42.0563C284.379 35.9417 285.732 31.0315 287.32 27.6447C288.114 25.9508 288.945 24.6866 289.784 23.8444C290.617 23.0079 291.409 22.6333 292.157 22.5885C292.905 22.5436 293.735 22.8209 294.659 23.552C295.59 24.2881 296.562 25.4441 297.548 27.0313C299.519 30.2047 301.434 34.919 303.17 40.8676C306.638 52.7489 309.331 69.3384 310.41 87.811C311.488 106.284 310.744 123.079 308.683 135.292C307.651 141.407 306.298 146.317 304.711 149.704C303.916 151.398 303.086 152.662 302.247 153.504C301.414 154.341 300.622 154.715 299.874 154.76Z" stroke="#4DE55D" stroke-width="2"/>
<path opacity="0.37931" d="M294.136 155.387C293.387 155.366 292.584 155.017 291.727 154.207C290.863 153.392 289.994 152.155 289.149 150.487C287.46 147.152 285.96 142.287 284.744 136.208C282.316 124.067 281.066 107.303 281.587 88.8046C282.108 70.3066 284.3 53.6395 287.408 41.6537C288.964 35.6529 290.735 30.8801 292.61 27.6457C293.547 26.0279 294.484 24.8416 295.392 24.0763C296.294 23.3163 297.115 23.0128 297.864 23.0339C298.613 23.055 299.416 23.4042 300.274 24.2138C301.138 25.0291 302.006 26.2662 302.851 27.9342C304.54 31.269 306.041 36.1339 307.256 42.2129C309.685 54.3546 310.935 71.1186 310.414 89.6166C309.893 108.115 307.701 124.782 304.593 136.767C303.037 142.768 301.265 147.541 299.391 150.775C298.453 152.393 297.517 153.58 296.608 154.345C295.706 155.105 294.885 155.408 294.136 155.387Z" stroke="#4DE55D" stroke-width="2"/>
<path opacity="0.413793" d="M288.413 155.511C287.668 155.424 286.899 155.005 286.114 154.123C285.324 153.235 284.566 151.926 283.868 150.19C282.474 146.72 281.399 141.741 280.713 135.578C279.343 123.268 279.546 106.458 281.662 88.0749C283.779 69.6923 287.402 53.2807 291.533 41.6134C293.601 35.772 295.778 31.173 297.925 28.1156C298.998 26.5864 300.034 25.4869 301.005 24.8044C301.969 24.1265 302.813 23.8964 303.558 23.9833C304.302 24.0702 305.072 24.4887 305.856 25.3708C306.646 26.2589 307.405 27.5678 308.102 29.3038C309.497 32.7746 310.571 37.7532 311.257 43.9161C312.627 56.2257 312.425 73.0366 310.308 91.4192C308.192 109.802 304.568 126.213 300.437 137.881C298.369 143.722 296.192 148.321 294.046 151.379C292.972 152.908 291.937 154.007 290.966 154.69C290.001 155.368 289.157 155.598 288.413 155.511Z" stroke="#4DE55D" stroke-width="2"/>
<path opacity="0.448276" d="M282.747 155.134C282.013 154.982 281.282 154.497 280.577 153.549C279.866 152.595 279.224 151.224 278.679 149.433C277.59 145.853 276.949 140.799 276.798 134.599C276.497 122.215 278.15 105.485 281.846 87.3578C285.543 69.2305 290.569 53.1993 295.692 41.9392C298.257 36.3017 300.823 31.9115 303.225 29.0545C304.426 27.6254 305.553 26.6212 306.579 26.0266C307.598 25.4361 308.459 25.281 309.193 25.4331C309.927 25.5852 310.658 26.07 311.363 27.0177C312.074 27.972 312.716 29.3426 313.261 31.1334C314.351 34.7137 314.991 39.7681 315.142 45.9682C315.443 58.3519 313.79 75.0817 310.094 93.209C306.397 111.336 301.371 127.367 296.248 138.628C293.683 144.265 291.117 148.655 288.715 151.512C287.514 152.941 286.387 153.946 285.361 154.54C284.342 155.131 283.481 155.286 282.747 155.134Z" stroke="#4DE55D" stroke-width="2"/>
<path opacity="0.482759" d="M277.181 154.263C276.463 154.046 275.777 153.499 275.156 152.493C274.531 151.48 274.009 150.058 273.621 148.226C272.845 144.563 272.644 139.472 273.029 133.282C273.798 120.918 276.89 104.397 282.138 86.6626C287.385 68.9287 293.777 53.4 299.853 42.6328C302.894 37.2421 305.83 33.0942 308.469 30.4592C309.789 29.1412 310.998 28.2399 312.072 27.7378C313.138 27.2392 314.009 27.1603 314.728 27.3764C315.446 27.5926 316.132 28.14 316.753 29.1462C317.378 30.1593 317.9 31.5813 318.288 33.4132C319.064 37.0759 319.265 42.1674 318.88 48.3574C318.111 60.721 315.019 77.2424 309.772 94.9764C304.524 112.71 298.132 128.239 292.057 139.006C289.015 144.397 286.08 148.545 283.44 151.18C282.12 152.498 280.911 153.399 279.837 153.901C278.771 154.4 277.9 154.479 277.181 154.263Z" stroke="#4DE55D" stroke-width="2"/>
<path opacity="0.517241" d="M271.759 152.909C271.062 152.63 270.426 152.024 269.894 150.967C269.359 149.903 268.962 148.44 268.734 146.581C268.277 142.864 268.516 137.774 269.435 131.642C271.269 119.392 275.776 103.205 282.535 85.9993C289.294 68.7936 297.002 53.8855 303.984 43.6933C307.48 38.5904 310.762 34.7164 313.619 32.3235C315.048 31.1267 316.33 30.335 317.442 29.9293C318.547 29.5263 319.423 29.5242 320.12 29.8029C320.817 30.0816 321.454 30.6876 321.985 31.7445C322.52 32.8089 322.917 34.2713 323.145 36.1304C323.602 39.8474 323.363 44.9374 322.445 51.0702C320.611 63.3196 316.104 79.5068 309.345 96.7125C302.586 113.918 294.877 128.826 287.896 139.018C284.4 144.121 281.118 147.995 278.261 150.388C276.832 151.585 275.55 152.377 274.437 152.783C273.332 153.186 272.457 153.188 271.759 152.909Z" stroke="#4DE55D" stroke-width="2"/>
<path opacity="0.551724" d="M266.521 151.087C265.85 150.747 265.269 150.087 264.83 148.988C264.389 147.88 264.12 146.388 264.053 144.516C263.919 140.773 264.597 135.724 266.042 129.695C268.926 117.653 274.814 101.923 283.033 85.3765C291.252 68.8301 300.218 54.6562 308.054 45.1165C311.976 40.3403 315.58 36.7695 318.633 34.637C320.16 33.5704 321.505 32.8945 322.649 32.5881C323.784 32.2839 324.656 32.3587 325.328 32.6979C325.999 33.0372 326.58 33.6971 327.019 34.7968C327.46 35.9043 327.729 37.396 327.796 39.2682C327.93 43.0112 327.252 48.0609 325.807 54.0898C322.923 66.1317 317.035 81.8615 308.816 98.408C300.597 114.954 291.631 129.128 283.795 138.668C279.873 143.444 276.269 147.015 273.216 149.148C271.689 150.214 270.344 150.89 269.2 151.196C268.065 151.501 267.193 151.426 266.521 151.087Z" stroke="#4DE55D" stroke-width="2"/>
<path opacity="0.586207" d="M261.507 148.814C260.867 148.416 260.345 147.707 260.003 146.573C259.66 145.431 259.521 143.921 259.616 142.051C259.805 138.31 260.917 133.339 262.876 127.46C266.79 115.717 274.014 100.564 283.63 84.8032C293.246 69.042 303.402 55.71 312.031 46.8955C316.351 42.4823 320.25 39.242 323.474 37.3861C325.087 36.4579 326.486 35.9029 327.651 35.6982C328.809 35.495 329.672 35.6461 330.312 36.0434C330.951 36.4408 331.474 37.1498 331.815 38.2839C332.159 39.426 332.298 40.9357 332.203 42.8066C332.013 46.5472 330.902 51.5181 328.943 57.3973C325.029 69.14 317.805 84.2927 308.189 100.054C298.573 115.815 288.417 129.147 279.788 137.962C275.468 142.375 271.569 145.615 268.345 147.471C266.732 148.399 265.333 148.954 264.167 149.159C263.01 149.362 262.147 149.211 261.507 148.814Z" stroke="#4DE55D" stroke-width="2"/>
<path opacity="0.62069" d="M256.755 146.112C256.152 145.659 255.692 144.906 255.45 143.746C255.206 142.578 255.198 141.062 255.454 139.207C255.966 135.497 257.503 130.643 259.962 124.958C264.875 113.604 273.38 99.1438 284.32 84.2876C295.261 69.4315 306.529 57.043 315.885 49.0206C320.57 45.0041 324.733 42.119 328.106 40.5537C329.793 39.7709 331.234 39.341 332.412 39.2396C333.583 39.1389 334.43 39.3653 335.033 39.8179C335.637 40.2704 336.096 41.0231 336.339 42.183C336.583 43.351 336.59 44.8672 336.334 46.7226C335.822 50.4323 334.286 55.2866 331.826 60.9712C326.913 72.3254 318.409 86.7857 307.469 101.642C296.528 116.498 285.26 128.886 275.903 136.909C271.219 140.925 267.055 143.81 263.683 145.376C261.996 146.159 260.555 146.588 259.376 146.69C258.206 146.791 257.359 146.564 256.755 146.112Z" stroke="#4DE55D" stroke-width="2"/>
<path opacity="0.655172" d="M252.301 143.006C251.738 142.501 251.346 141.71 251.205 140.534C251.062 139.348 251.185 137.837 251.601 136.012C252.431 132.361 254.381 127.66 257.322 122.213C263.196 111.334 272.917 97.6764 285.098 83.8385C297.28 70.0006 309.574 58.6498 319.588 51.4807C324.601 47.8913 328.997 45.3833 332.492 44.1206C334.24 43.4891 335.712 43.1876 336.895 43.1902C338.07 43.1929 338.895 43.493 339.457 43.9973C340.02 44.5017 340.413 45.2925 340.554 46.4693C340.696 47.6544 340.573 49.1656 340.157 50.9914C339.327 54.6419 337.377 59.3426 334.436 64.7894C328.562 75.6686 318.841 89.3264 306.66 103.164C294.479 117.002 282.184 128.353 272.171 135.522C267.157 139.112 262.761 141.62 259.266 142.882C257.519 143.514 256.046 143.815 254.863 143.813C253.688 143.81 252.864 143.51 252.301 143.006Z" stroke="#4DE55D" stroke-width="2"/>
<path opacity="0.689655" d="M248.179 139.522C247.661 138.97 247.338 138.147 247.299 136.962C247.26 135.769 247.513 134.274 248.085 132.492C249.227 128.928 251.575 124.417 254.975 119.249C261.767 108.928 272.629 96.1766 285.959 83.4622C299.288 70.7477 312.516 60.5211 323.11 54.2597C328.414 51.1248 333.009 49.013 336.599 48.0624C338.395 47.587 339.888 47.4161 341.066 47.5228C342.236 47.6288 343.032 48.0003 343.549 48.5528C344.067 49.1054 344.39 49.9282 344.429 51.113C344.468 52.3062 344.215 53.8007 343.643 55.583C342.501 59.1465 340.153 63.658 336.753 68.8256C329.961 79.147 319.099 91.8984 305.769 104.613C292.44 117.327 279.212 127.554 268.618 133.815C263.314 136.95 258.719 139.062 255.129 140.013C253.333 140.488 251.84 140.659 250.662 140.552C249.492 140.446 248.696 140.075 248.179 139.522Z" stroke="#4DE55D" stroke-width="2"/>
<path opacity="0.724138" d="M244.419 135.693C243.951 135.096 243.701 134.248 243.764 133.064C243.828 131.872 244.209 130.405 244.932 128.68C246.378 125.231 249.107 120.943 252.94 116.094C260.596 106.409 272.518 94.6607 286.895 83.1665C301.271 71.6723 315.33 62.6476 326.424 57.3416C331.978 54.685 336.739 52.9854 340.397 52.3542C342.226 52.0385 343.728 51.9995 344.893 52.2095C346.049 52.418 346.81 52.8581 347.278 53.4547C347.747 54.0513 347.997 54.8999 347.934 56.0836C347.87 57.2758 347.488 58.7424 346.765 60.4676C345.32 63.917 342.591 68.2049 338.758 73.0539C331.101 82.7391 319.179 94.487 304.803 105.981C290.427 117.475 276.367 126.5 265.273 131.806C259.719 134.463 254.959 136.162 251.301 136.794C249.471 137.109 247.97 137.148 246.805 136.938C245.649 136.73 244.887 136.29 244.419 135.693Z" stroke="#4DE55D" stroke-width="2"/>
<path opacity="0.758621" d="M241.051 131.551C240.636 130.915 240.46 130.047 240.626 128.873C240.792 127.691 241.299 126.264 242.168 124.609C243.906 121.3 246.994 117.268 251.232 112.775C259.695 103.799 272.585 93.1442 287.899 82.9577C303.213 72.7712 317.997 65.017 329.506 60.7067C335.269 58.5487 340.157 57.2741 343.855 56.9671C345.705 56.8135 347.204 56.9068 348.346 57.2183C349.48 57.5277 350.201 58.0333 350.616 58.6694C351.032 59.3056 351.208 60.1735 351.042 61.3472C350.876 62.5292 350.369 63.9567 349.5 65.6117C347.762 68.9209 344.673 72.9525 340.436 77.4461C331.973 86.4213 319.082 97.0764 303.769 107.263C288.455 117.449 273.671 125.204 262.161 129.514C256.399 131.672 251.511 132.946 247.812 133.254C245.963 133.407 244.463 133.314 243.321 133.002C242.188 132.693 241.467 132.187 241.051 131.551Z" stroke="#4DE55D" stroke-width="2"/>
<path opacity="0.793103" d="M238.101 127.132C237.741 126.461 237.641 125.581 237.907 124.426C238.175 123.263 238.803 121.885 239.812 120.313C241.829 117.169 245.254 113.425 249.863 109.321C259.068 101.124 272.829 91.6426 288.964 82.8413C305.098 74.04 320.495 67.6154 332.332 64.3336C338.259 62.6905 343.238 61.8507 346.949 61.8701C348.804 61.8797 350.29 62.1045 351.4 62.5154C352.503 62.9233 353.178 63.4905 353.537 64.1614C353.896 64.8323 353.996 65.7129 353.73 66.8675C353.462 68.0305 352.834 69.408 351.826 70.9803C349.808 74.124 346.384 77.8687 341.775 81.9726C332.569 90.1696 318.808 99.6509 302.674 108.452C286.54 117.253 271.142 123.678 259.305 126.96C253.379 128.603 248.399 129.443 244.689 129.423C242.833 129.414 241.348 129.189 240.237 128.778C239.134 128.37 238.46 127.803 238.101 127.132Z" stroke="#4DE55D" stroke-width="2"/>
<path opacity="0.827586" d="M235.589 122.473C235.289 121.773 235.265 120.886 235.63 119.76C235.998 118.624 236.742 117.307 237.883 115.83C240.163 112.876 243.898 109.446 248.844 105.763C258.722 98.4067 273.248 90.1714 290.081 82.8223C306.913 75.4731 322.806 70.4269 334.88 68.1986C340.926 67.0829 345.959 66.6843 349.653 67.0299C351.5 67.2027 352.961 67.5573 354.032 68.0643C355.095 68.5676 355.718 69.1922 356.018 69.8927C356.319 70.5933 356.342 71.4798 355.977 72.6066C355.61 73.7416 354.866 75.0587 353.725 76.5363C351.444 79.4906 347.709 82.9199 342.764 86.6031C332.886 93.9595 318.359 102.195 301.527 109.544C284.694 116.893 268.802 121.939 256.727 124.168C250.682 125.283 245.649 125.682 241.955 125.336C240.107 125.163 238.647 124.809 237.576 124.302C236.513 123.799 235.889 123.174 235.589 122.473Z" stroke="#4DE55D" stroke-width="2"/>
<path opacity="0.862069" d="M233.536 117.615C233.297 116.89 233.35 116.004 233.811 114.914C234.275 113.815 235.13 112.569 236.394 111.197C238.921 108.455 242.938 105.367 248.182 102.133C258.657 95.6726 273.839 88.746 291.242 82.9049C308.644 77.0639 324.911 73.4345 337.131 72.2765C343.25 71.6967 348.298 71.7422 351.948 72.4114C353.773 72.746 355.197 73.2277 356.22 73.827C357.236 74.4219 357.803 75.0992 358.042 75.824C358.28 76.5488 358.227 77.4343 357.766 78.5249C357.302 79.6233 356.447 80.8699 355.183 82.2415C352.656 84.9841 348.64 88.072 343.395 91.3062C332.92 97.7661 317.738 104.693 300.336 110.534C282.934 116.375 266.667 120.004 254.446 121.162C248.328 121.742 243.28 121.697 239.63 121.027C237.804 120.693 236.38 120.211 235.357 119.612C234.342 119.017 233.774 118.34 233.536 117.615Z" stroke="#4DE55D" stroke-width="2"/>
<path opacity="0.896552" d="M231.956 112.597C231.781 111.854 231.91 110.976 232.463 109.93C233.021 108.876 233.98 107.71 235.357 106.454C238.112 103.945 242.379 101.222 247.883 98.4607C258.876 92.9465 274.597 87.3812 292.437 83.0927C310.276 78.8041 326.794 76.6191 339.068 76.5402C345.213 76.5008 350.237 76.9901 353.815 77.9777C355.604 78.4716 356.981 79.0767 357.949 79.7637C358.909 80.4457 359.416 81.1705 359.591 81.914C359.766 82.6575 359.637 83.5353 359.084 84.5812C358.526 85.6347 357.567 86.8014 356.189 88.0566C353.435 90.5665 349.168 93.2895 343.664 96.0503C332.671 101.565 316.95 107.13 299.11 111.418C281.271 115.707 264.753 117.892 252.479 117.971C246.334 118.01 241.31 117.521 237.732 116.533C235.943 116.039 234.566 115.434 233.598 114.747C232.638 114.065 232.131 113.341 231.956 112.597Z" stroke="#4DE55D" stroke-width="2"/>
<path opacity="0.931035" d="M230.862 107.463C230.752 106.706 230.956 105.843 231.598 104.85C232.244 103.849 233.301 102.771 234.781 101.642C237.741 99.3839 242.227 97.0466 247.948 94.7802C259.375 90.2536 275.517 86.092 293.658 83.3885C311.799 80.6851 328.442 79.9611 340.675 80.962C346.799 81.4631 351.762 82.3924 355.241 83.691C356.981 84.3404 358.3 85.0643 359.204 85.8338C360.102 86.5977 360.545 87.3645 360.655 88.1209C360.765 88.8773 360.56 89.7406 359.919 90.7339C359.273 91.7344 358.216 92.8123 356.736 93.9417C353.776 96.1999 349.29 98.5372 343.569 100.804C332.142 105.33 316 109.492 297.859 112.195C279.718 114.899 263.075 115.623 250.842 114.622C244.718 114.121 239.755 113.191 236.276 111.893C234.536 111.243 233.217 110.519 232.313 109.75C231.415 108.986 230.972 108.219 230.862 107.463Z" stroke="#4DE55D" stroke-width="2"/>
<path opacity="0.965517" d="M230.261 102.255C230.217 101.492 230.496 100.65 231.22 99.7165C231.95 98.7766 233.096 97.7956 234.668 96.8008C237.812 94.8114 242.483 92.8774 248.377 91.1228C260.151 87.6181 276.59 84.8919 294.895 83.7941C313.2 82.6964 329.841 83.4388 341.94 85.5118C347.998 86.5497 352.861 87.912 356.214 89.5117C357.891 90.3117 359.143 91.1488 359.977 91.995C360.806 92.835 361.181 93.6379 361.225 94.4013C361.27 95.1648 360.991 96.0069 360.266 96.9401C359.536 97.88 358.391 98.8609 356.818 99.8558C353.674 101.845 349.004 103.779 343.109 105.534C331.336 109.038 314.897 111.765 296.592 112.862C278.287 113.96 261.646 113.218 249.546 111.145C243.489 110.107 238.626 108.745 235.272 107.145C233.595 106.345 232.343 105.508 231.509 104.662C230.681 103.822 230.306 103.019 230.261 102.255Z" stroke="#4DE55D" stroke-width="2"/>
<path d="M230.159 97.0177C230.181 96.2531 230.531 95.4386 231.334 94.5727C232.142 93.7005 233.368 92.824 235.02 91.9712C238.324 90.2659 243.144 88.7499 249.167 87.5203C261.198 85.0643 277.809 83.7941 296.138 84.3105C314.467 84.8268 330.981 87.03 342.854 90.1594C348.799 91.7261 353.526 93.511 356.728 95.3996C358.329 96.344 359.504 97.2881 360.262 98.2045C361.014 99.1142 361.319 99.947 361.297 100.712C361.276 101.476 360.925 102.291 360.122 103.157C359.314 104.029 358.088 104.905 356.436 105.758C353.133 107.463 348.313 108.979 342.289 110.209C330.259 112.665 313.647 113.935 295.318 113.419C276.989 112.903 260.476 110.699 248.602 107.57C242.658 106.003 237.931 104.218 234.728 102.33C233.127 101.385 231.952 100.441 231.194 99.5248C230.442 98.6151 230.138 97.7822 230.159 97.0177Z" stroke="#4DE55D" stroke-width="2"/>
<path d="M245.605 83.9297L246.524 84.5995H247.383V82.9226L250.082 82.6572L252.649 84.5995H256.864L258.376 83.1955V80.9828L257.142 80.0401L252.976 80.1121L251.596 78.5716L251.33 76.091L249.916 76.8749L249.158 79.9086L247.117 77.6935L247.034 75.6048L245.062 73.8808L244.335 73.144H242.048L242.772 75.2178L245.52 76.7781L246 77.2916L245.405 77.5967L245.43 79.2389L244.086 79.8069L242.945 79.549L242.228 78.5195L244.086 78.6212L244.591 77.9341L240.919 75.4113C240.556 76.8228 240.256 78.259 240 79.7127L240.929 79.6407V82.7217L245.605 83.9297Z" fill="white"/>
<path d="M337.728 115.647L339.293 118.366L339.364 120.018C345.193 111.185 348.599 100.57 348.599 89.1568C348.599 78.0685 345.378 67.7392 339.849 59.0645L339.132 59.6797L334.985 59L334.921 59.8161L336.435 60.8778L334.456 61.2772V62.4828L330.379 62.7507L333.473 65.6977L334.002 68.1113L332.617 68.848L328.27 65.2338V63.5544L329.328 61.8775L328.538 60.8753L323.796 64.0902L320.047 63.7529L318.796 62.8177L317.216 65.0949L317.94 66.5684L323.404 67.2381L325.596 69.7832L325.047 70.5224L323.338 68.7786L322.548 69.6493L323.887 71.4452L323.601 74.8164L320.093 74.8089L319.917 77.5327L322.88 79.3634L323.911 80.7451L322.351 81.1717L316.821 76.8827H315.044L315.109 80.3655L319.123 84.6545L319.43 87.7577L317.409 89.4743L312.803 91.1537L313.261 92.8926L312.425 93.4954L311.482 92.0219L311.616 90.8833L309.97 90.3425L309.043 91.6176L309.177 94.0312L312.425 96.688L312.752 98.6973L310.782 100.027L309.292 99.8706L306.61 96.7797L306.079 98.9255L311.15 106.295L310.821 107.362L304.565 101.272V95.1103L299.83 90.8213L296.053 90.4542L293.913 91.2678L292.586 94.1701L291.877 99.563L290.597 101.458L289.309 101.148L285.328 94.4827L285.562 92.0244V90.216L283.743 89.0477L275.971 87.7553L272.391 87.5791L269.256 85.746L269.037 83.826H267.544C267.544 83.826 267.503 86.4629 267.503 86.6067C267.503 86.7531 274.261 89.9928 274.261 89.9928L276.188 90.2508L276.222 91.7267L274.413 92.9249L268.642 97.1742L265.877 97.3577L264.516 95.9686L264.372 93.7236L258.501 86.4653L258.082 86.959L264.009 98.3152L265.46 99.052L271.099 97.8414L272.155 98.3351L266.725 106.233L261.795 111.021L262.895 112.993L263.422 118.302L260.92 121.782L259.735 123.211V125.351L257.936 125.756L256.532 128.301L256 128.859C265.835 138.623 279.262 144.651 294.054 144.651C306.398 144.651 317.791 140.453 326.942 133.394L326.13 131.578L320.434 131.811L313.412 134.267V132.972L314.863 131.543L315.039 124.22L317.448 122.524L319.615 122.494L323.696 117.763L326.278 117.565V118.547H327.154L329.306 115.441H332.303L334.853 116.999L333.656 118.187L332.235 117.895L332.33 119.849L333.081 120.311L335.763 120.514L336.333 115.583L337.728 115.647ZM269.478 122.407L266.801 126.386L265.443 128.611L263.948 127.13V124.771L265.045 123.474L265.791 122.315L264.826 121.152V119.011L267.547 119.371L269.127 116.151H270.753L269.478 122.407ZM293.527 102.443L291.533 103.202L290.982 101.686L292.14 100.024L293.747 100.352L293.527 102.443ZM322.921 107.211L322.955 111.562L321.99 111.649V110.178L321.066 109.838L321.241 111.919H320.056V108.662H320.627L320.595 108.129L322.921 107.211ZM309.112 113.124L308.807 112.14H310.036V111.691L309.112 111.376L302.66 103.338L303.76 102.45L308.28 106.598L308.229 107.27L309.195 108.565L312.703 108.518L312.837 110.17L311.569 110.302L311.04 110.078L311.177 111.869L314.424 111.778L317.055 113.482L309.112 113.124ZM319.517 114.075H318.459V113.482H319.517V114.075ZM319.517 107.575V108.161L318.647 108.965L318.152 110.24H314.285L312.752 108.178V105.673L317.348 103.14L317.952 102.584L318.462 101.19H319.257L319.515 102.567L320.059 102.798V107.208L319.517 107.575ZM322.165 113.482L321.687 113.551V114.075H321.029V114.491L320.059 114.593V114.075L320.683 113.482L321.112 112.973H322.168L322.165 113.482ZM322.611 112.772H323.494L323.299 113.474L322.611 113.253V112.772ZM324.784 113.995V114.543H323.731V115.012H322.707V114.075H322.77L324.113 113.921L324.218 113.301L325.423 113.124L325.518 114.075L324.784 113.995ZM333.249 114.191L333.205 112.539H334.261L334.214 111.738L332.591 110.865L329.694 110.44L328.353 108.764L330.352 106.734L331.752 107.585L331.642 109.141L333.115 109.101L334.695 108.25L340.354 110.865L340.573 113.968H341.758V114.995H339.393V112.45L338.032 112.586L336.76 113.973L333.249 114.191Z" fill="white"/>
<path d="M244.879 64.7497L244.876 65.2408L244.545 65.4095C244.267 65.9949 244.008 66.5928 243.75 67.1881L246.456 67.2129L248.546 64.0501L248.45 62.6114L246.966 61.9069V60.8774C246.217 62.1351 245.525 63.43 244.879 64.7497Z" fill="white"/>
<path d="M257.74 73.8511L256.996 73.4765L256.599 74.1091L254.789 74.3224L253.958 74.5829L253.195 75.4585V77.83L254.219 77.6886L257.635 77.83H260.002L259.829 76.8427L257.844 76.0142L257.74 73.8511Z" fill="white"/>
<path d="M266.49 78.7006L266.334 79.42L268.509 79.5737L268.772 79.9955L270.157 80.112L270.752 79.5291V78.5939L269.586 77.7207V76.3812L266.89 74.5505L266.997 73.5558L269.152 73.6773L269.079 72.6057L267.565 71.9632L265.793 72.117L265.354 73.144L265.437 75.2178L267.638 76.85V77.6934L266.49 78.7006Z" fill="white"/>
<path d="M288.786 52.0415L292.544 54.3212H300.636L303.386 56.395L304.254 56.4644L306.324 54.341L308.603 54.4204L311.636 54.8793L313.545 55.8616L333.952 56.9333L339.389 59.275C329.652 44.0738 312.804 34 293.675 34C276.084 34 260.419 42.5259 250.438 55.7202L252.381 55.6607L257.776 58.2083L256.857 59.0095L252.381 59.2105L252.573 60.1705L256.857 60.2945L258.615 58.8979L259.227 57.2483L260.063 57.0251L260.57 58.5209L263.923 56.9358L270.944 57.4021L270.354 55.9286L270.813 54.1203L272.792 54.6139L273.446 55.6607L273.841 58.6771L275.601 58.1413L275.555 55.1274L281.27 52.5277L288.786 52.0415Z" fill="white"/>
<path d="M249.579 58.1364H248.743L248.67 58.1885C248.092 59.0468 247.529 59.92 246.997 60.8155L249.579 59.213V58.1364Z" fill="white"/>
</svg>
